<svg width="14" height="17" viewBox="0 0 14 17" fill="none" xmlns="http://www.w3.org/2000/svg">
<path d="M12.8745 12.0327C12.639 11.8958 12.3412 11.6917 12.0469 11.4082C11.4452 10.8286 10.8481 9.90494 10.8481 8.55777C10.8481 7.39063 11.317 6.53894 11.7944 5.97634C11.9851 5.75155 12.1851 5.56656 12.3537 5.42721C11.4516 4.47506 10.2915 4.44116 9.91241 4.44107L12.8745 12.0327ZM12.8745 12.0327C12.8433 12.1156 12.8055 12.2113 12.7606 12.3178C12.5932 12.7149 12.3376 13.2354 11.9796 13.758C11.6346 14.2546 11.3158 14.6989 10.9639 15.0234C10.6209 15.3398 10.287 15.5042 9.91251 15.5042C9.49475 15.5042 9.24138 15.3937 8.89294 15.2418L8.86771 15.2308C8.48458 15.0639 8.02715 14.8742 7.29951 14.8742C6.5876 14.8742 6.09923 15.0692 5.69758 15.239C5.68495 15.2443 5.67245 15.2496 5.66007 15.2549C5.28214 15.4148 5.02217 15.5249 4.65551 15.5249C4.33067 15.5249 4.02546 15.3816 3.68209 15.064C3.32999 14.7382 2.98698 14.2756 2.58512 13.712C1.72034 12.4771 1.01401 10.5423 1.01401 8.72297C1.01401 5.87201 2.832 4.48237 4.51091 4.48237C4.93393 4.48237 5.33906 4.62131 5.76902 4.79279C5.81386 4.81068 5.8599 4.82929 5.90666 4.8482C6.07126 4.91474 6.24483 4.98492 6.40718 5.03986C6.6173 5.11096 6.85692 5.17437 7.10321 5.17437C7.34699 5.17437 7.59114 5.10537 7.8025 5.03246C7.94925 4.98184 8.11226 4.91724 8.27151 4.85414C8.34068 4.82673 8.40913 4.79961 8.47523 4.77403C8.93923 4.5945 9.41119 4.44109 9.9123 4.44107L12.8745 12.0327ZM8.96204 2.30752L9.34451 2.62957L8.9559 2.31495C8.73982 2.58186 8.43596 2.8247 8.1051 2.99961C7.87689 3.12025 7.65181 3.20026 7.44987 3.23886C7.5145 2.63709 7.83425 2.0333 8.19128 1.62757L8.1913 1.62759L8.1947 1.62364C8.57355 1.18394 9.14254 0.832775 9.67659 0.676071C9.61155 1.27005 9.33773 1.86133 8.96204 2.30752Z" fill="white" stroke="black"/>
</svg>
